<svg data-name="Groupe 1285" xmlns="http://www.w3.org/2000/svg" width="87.881" height="92" viewBox="0 0 87.881 92">
    <defs>
        <clipPath id="ugpf0up6ua">
            <path data-name="Rectangle 190" style="fill:none" d="M0 0h87.881v92H0z"/>
        </clipPath>
    </defs>
    <g data-name="Groupe 1271">
        <g data-name="Groupe 1270" style="clip-path:url(#ugpf0up6ua)">
            <path data-name="Tracé 154" d="M3.188 0h81.5a3.187 3.187 0 0 1 3.192 3.187v85.625A3.188 3.188 0 0 1 84.692 92H3.188A3.188 3.188 0 0 1 0 88.812V3.188A3.188 3.188 0 0 1 3.188 0z" style="fill:#007bca"/>
            <path data-name="Tracé 124" d="M37.494 7.175v51.073l33.778-11.065z" transform="translate(5.558 1.064)" style="fill:#6ac7f4"/>
            <path data-name="Tracé 125" d="M41.625 7.175v51.073l-32-11.659z" transform="translate(1.427 1.064)" style="fill:#fff"/>
        </g>
    </g>
    <path data-name="Tracé 126" d="m9.624 46.59 32 11.658V7.175z" transform="translate(1.427 1.064)" style="fill:#fff"/>
    <g data-name="Groupe 1273">
        <g data-name="Groupe 1272" style="clip-path:url(#ugpf0up6ua)">
            <path data-name="Tracé 127" d="M6.41 75.927 4.776 71.34h.365l1.535 4.353 1.51-4.353h.364c-.533 1.509-1.079 3.077-1.613 4.587z" transform="translate(.708 10.575)" style="fill:#fff"/>
            <path data-name="Tracé 128" d="M10.348 75.819a1.727 1.727 0 1 1 1.64-1.725 1.676 1.676 0 0 1-1.64 1.725m0-.293a1.346 1.346 0 0 0 1.3-1.432 1.3 1.3 0 1 0-2.6 0 1.346 1.346 0 0 0 1.3 1.432" transform="translate(1.292 10.728)" style="fill:#fff"/>
            <path data-name="Tracé 129" d="M14.03 75.872a.87.87 0 0 1-1.008-.924v-2.121h-.488v-.28h.488v-.807l.332-.071v.878h.669v.28h-.669v2.121a.593.593 0 0 0 .676.619z" transform="translate(1.858 10.624)" style="fill:#fff"/>
            <path data-name="Tracé 130" d="m15.481 72.438.052.429a1.232 1.232 0 0 1 1.549-.339l-.137.28a.938.938 0 0 0-1.405.813v2.115h-.332v-3.3z" transform="translate(2.254 10.732)" style="fill:#fff"/>
            <path data-name="Tracé 131" d="m20.286 75.035.254.176a1.56 1.56 0 0 1-1.249.573 1.622 1.622 0 0 1-1.591-1.725 1.588 1.588 0 0 1 1.588-1.666 1.513 1.513 0 0 1 1.529 1.581c0 .078-.007.131-.014.215h-2.795a1.3 1.3 0 0 0 1.283 1.276 1.274 1.274 0 0 0 1-.429m.227-1.132a1.214 1.214 0 0 0-1.23-1.2 1.26 1.26 0 0 0-1.276 1.2z" transform="translate(2.623 10.731)" style="fill:#fff"/>
            <path data-name="Tracé 132" d="M24.365 75.9c-.559.026-.872-.286-.872-.924V71.34h.344v3.636c0 .39.11.632.527.625z" transform="translate(3.482 10.575)" style="fill:#fff"/>
            <path data-name="Tracé 133" d="m27.841 75.74-.065-.351a1.522 1.522 0 0 1-1 .423c-.956.007-1.407-.5-1.407-1.139 0-.579.508-1.093 1.464-1.1a1.944 1.944 0 0 1 .951.273v-.273c0-.71-.508-.878-1.047-.878a1.608 1.608 0 0 0-.951.293l-.149-.241a1.859 1.859 0 0 1 1.12-.364c.683 0 1.347.305 1.347 1.191v2.166zm-.059-1.588a1.829 1.829 0 0 0-.944-.261c-.754 0-1.138.351-1.138.8 0 .469.35.814 1.074.814a1.407 1.407 0 0 0 1.008-.449z" transform="translate(3.76 10.73)" style="fill:#fff"/>
            <path data-name="Tracé 134" d="M32.018 74.269a1.538 1.538 0 0 1-1.5 1.659 1.074 1.074 0 0 1-.9-.385l-.052.351h-.28v-4.56h.346v1.574a1.179 1.179 0 0 1 .839-.325 1.56 1.56 0 0 1 1.555 1.686m-.332.013a1.277 1.277 0 0 0-1.159-1.4 1.087 1.087 0 0 0-.911.371v1.913a.987.987 0 0 0 .832.462 1.275 1.275 0 0 0 1.237-1.347" transform="translate(4.34 10.574)" style="fill:#fff"/>
            <path data-name="Tracé 135" d="m35.46 75.035.254.176a1.56 1.56 0 0 1-1.249.573 1.623 1.623 0 0 1-1.595-1.725 1.588 1.588 0 0 1 1.588-1.666 1.513 1.513 0 0 1 1.529 1.581c0 .078-.007.131-.014.215h-2.791a1.3 1.3 0 0 0 1.283 1.276 1.274 1.274 0 0 0 1-.429m.227-1.132a1.214 1.214 0 0 0-1.23-1.2 1.26 1.26 0 0 0-1.276 1.2z" transform="translate(4.872 10.731)" style="fill:#fff"/>
            <path data-name="Tracé 136" d="M37.817 75.9c-.559.026-.872-.286-.872-.924V71.34h.344v3.636c0 .39.11.632.527.625z" transform="translate(5.477 10.575)" style="fill:#fff"/>
            <path data-name="Tracé 137" d="M42.971 72.909v-1.575h.346V75.9h-.28l-.052-.351a1.073 1.073 0 0 1-.9.384c-2.017-.026-2.011-3.351.052-3.345a1.175 1.175 0 0 1 .839.326m.007 2.257v-1.917a1.087 1.087 0 0 0-.911-.371 1.383 1.383 0 0 0 .078 2.74.978.978 0 0 0 .832-.456" transform="translate(6.015 10.574)" style="fill:#fff"/>
            <path data-name="Tracé 138" d="m46.94 75.035.254.176a1.561 1.561 0 0 1-1.25.573 1.622 1.622 0 0 1-1.594-1.725 1.588 1.588 0 0 1 1.588-1.666 1.513 1.513 0 0 1 1.529 1.581c0 .078-.007.131-.014.215h-2.791a1.3 1.3 0 0 0 1.281 1.276 1.274 1.274 0 0 0 1-.429m.227-1.132a1.214 1.214 0 0 0-1.23-1.2 1.26 1.26 0 0 0-1.276 1.2z" transform="translate(6.574 10.731)" style="fill:#fff"/>
            <path data-name="Tracé 139" d="M52.041 75.895v-3h-1.405v3H50.3v-3h-.325v-.3h.325v-.338a.875.875 0 0 1 1.015-.924v.286c-.508 0-.676.241-.676.638v.343h1.75v3.3zm.351-4.048h-.358v-.5h.358z" transform="translate(7.408 10.574)" style="fill:#fff"/>
            <path data-name="Tracé 140" d="m55.906 75.74-.065-.351a1.522 1.522 0 0 1-1 .423c-.958.007-1.407-.5-1.407-1.139 0-.579.509-1.093 1.465-1.1a1.944 1.944 0 0 1 .95.273v-.273c0-.71-.508-.878-1.047-.878a1.608 1.608 0 0 0-.951.293l-.149-.241a1.856 1.856 0 0 1 1.118-.364c.684 0 1.348.305 1.348 1.191v2.166zm-.059-1.588a1.829 1.829 0 0 0-.944-.261c-.754 0-1.138.351-1.138.8 0 .469.35.814 1.074.814a1.407 1.407 0 0 0 1.008-.449z" transform="translate(7.921 10.73)" style="fill:#fff"/>
            <path data-name="Tracé 141" d="M60.083 74.269a1.538 1.538 0 0 1-1.5 1.659 1.074 1.074 0 0 1-.9-.385l-.052.351h-.28v-4.56h.344v1.574a1.179 1.179 0 0 1 .839-.325 1.56 1.56 0 0 1 1.556 1.686m-.332.013a1.277 1.277 0 0 0-1.159-1.4 1.087 1.087 0 0 0-.911.371v1.913a.986.986 0 0 0 .832.462 1.275 1.275 0 0 0 1.237-1.347" transform="translate(8.5 10.574)" style="fill:#fff"/>
            <path data-name="Tracé 142" d="M61.48 71.846h-.351v-.5h.351zm-.346.742h.339v3.306h-.339z" transform="translate(9.061 10.576)" style="fill:#fff"/>
            <path data-name="Tracé 143" d="M63.854 75.9c-.559.026-.872-.286-.872-.924V71.34h.344v3.636c0 .39.11.632.527.625z" transform="translate(9.336 10.575)" style="fill:#fff"/>
            <path data-name="Tracé 144" d="M65.418 71.846h-.351v-.5h.351zm-.344.742h.339v3.306h-.339z" transform="translate(9.645 10.576)" style="fill:#fff"/>
            <path data-name="Tracé 145" d="M68.065 75.872a.87.87 0 0 1-1.008-.924v-2.121h-.489v-.28h.489v-.807l.332-.071v.878h.669v.28h-.669v2.121a.593.593 0 0 0 .676.619z" transform="translate(9.868 10.624)" style="fill:#fff"/>
            <path data-name="Tracé 146" d="M70.639 75.615a1.274 1.274 0 0 0 1-.429l.254.176a1.563 1.563 0 0 1-1.249.572 1.622 1.622 0 0 1-1.595-1.724 1.588 1.588 0 0 1 1.588-1.666 1.512 1.512 0 0 1 1.529 1.581c0 .078-.007.13-.014.215h-2.796a1.3 1.3 0 0 0 1.283 1.276m1.223-1.563a1.213 1.213 0 0 0-1.23-1.2 1.258 1.258 0 0 0-1.276 1.2zm-.683-2.667h-.4l-.39.677h.3z" transform="translate(10.235 10.582)" style="fill:#fff"/>
            <path data-name="Tracé 147" d="M13.01 68.041a5.31 5.31 0 0 1-2.693.638 5.688 5.688 0 0 1-2.3-.444 4.92 4.92 0 0 1-1.717-1.22 5.407 5.407 0 0 1-1.074-1.829 6.7 6.7 0 0 1-.373-2.263 6.94 6.94 0 0 1 .373-2.311 5.544 5.544 0 0 1 1.074-1.86 4.905 4.905 0 0 1 1.719-1.245 5.613 5.613 0 0 1 2.3-.451 5.6 5.6 0 0 1 2.3.451 4.931 4.931 0 0 1 1.712 1.245 5.541 5.541 0 0 1 1.069 1.859 6.941 6.941 0 0 1 .374 2.311 6.634 6.634 0 0 1-.374 2.255 5.589 5.589 0 0 1-1.072 1.837l1.385 1.26-1.133 1.183zm-.358-2.567a3.387 3.387 0 0 0 .5-1.043 5.328 5.328 0 0 0 .186-1.509 6.08 6.08 0 0 0-.163-1.417 3.759 3.759 0 0 0-.521-1.222 2.653 2.653 0 0 0-.934-.855 2.858 2.858 0 0 0-1.4-.318 2.85 2.85 0 0 0-1.4.318 2.637 2.637 0 0 0-.934.853 3.737 3.737 0 0 0-.525 1.219 6.112 6.112 0 0 0-.161 1.414 5.683 5.683 0 0 0 .163 1.358 3.661 3.661 0 0 0 .522 1.187 2.64 2.64 0 0 0 .934.846 2.838 2.838 0 0 0 1.4.319 4.46 4.46 0 0 0 .591-.029 1.409 1.409 0 0 0 .389-.111l-1.043-.95 1.136-1.214z" transform="translate(.72 8.458)" style="fill:#fff"/>
            <path data-name="Tracé 148" d="M23.995 67.548a5.137 5.137 0 0 1-3.486 1.1 5.121 5.121 0 0 1-3.494-1.089 4.253 4.253 0 0 1-1.237-3.361v-6.912h2.443v6.909a5.161 5.161 0 0 0 .077.886 1.834 1.834 0 0 0 .327.77 1.813 1.813 0 0 0 .692.544 2.816 2.816 0 0 0 1.191.21 2.285 2.285 0 0 0 1.8-.583 2.775 2.775 0 0 0 .5-1.828v-6.908h2.443v6.909a4.209 4.209 0 0 1-1.26 3.353" transform="translate(2.339 8.492)" style="fill:#fff"/>
            <path data-name="Tracé 149" d="M37.831 57.286v9.056H42.4V68.4h-7.012V57.286z" transform="translate(5.246 8.492)" style="fill:#fff"/>
            <path data-name="Rectangle 191" transform="translate(49.441 65.779)" style="fill:#fff" d="M0 0h2.443v11.109H0z"/>
            <path data-name="Tracé 150" d="M52.126 57.287a6.949 6.949 0 0 1 1.448.139 3.16 3.16 0 0 1 1.12.459 2.138 2.138 0 0 1 .725.849 2.979 2.979 0 0 1 .255 1.307 2.447 2.447 0 0 1-.379 1.4 2.776 2.776 0 0 1-1.129.917 2.669 2.669 0 0 1 1.534 1.035 3.4 3.4 0 0 1 .18 3.237 2.85 2.85 0 0 1-.881 1 3.875 3.875 0 0 1-1.261.576 5.69 5.69 0 0 1-1.454.186h-5.1V57.287zm-.311 4.5a1.756 1.756 0 0 0 1.075-.311 1.177 1.177 0 0 0 .42-1.012 1.3 1.3 0 0 0-.14-.638 1.025 1.025 0 0 0-.375-.388 1.555 1.555 0 0 0-.535-.2 3.638 3.638 0 0 0-.63-.054h-2.009v2.6zm.141 4.715a3.317 3.317 0 0 0 .684-.07 1.713 1.713 0 0 0 .576-.233 1.19 1.19 0 0 0 .4-.444 1.521 1.521 0 0 0 .147-.715 1.438 1.438 0 0 0-.482-1.222 2.056 2.056 0 0 0-1.281-.37h-2.379V66.5z" transform="translate(6.994 8.492)" style="fill:#fff"/>
            <path data-name="Tracé 151" d="M64.24 59.34v-2.054h8.542v2.054h-3.05v9.06H67.29v-9.06z" transform="translate(9.523 8.492)" style="fill:#fff"/>
            <path data-name="Tracé 152" d="M28.943 57.148a72.421 72.421 0 0 0-4.235 11.3h2.5c.179-.543.334-1.07.5-1.627.129-.429.258-.869.4-1.322l.023-.073h3.888l.024.073c.33 1.047.617 1.985.9 2.949h2.5a72.3 72.3 0 0 0-4.235-11.3zm2.488 6.38h-2.679l.041-.136c.3-.989.757-2.481 1.19-3.566l.093-.235.1.233c.3.7.57 1.557.827 2.385.131.42.255.816.38 1.18z" transform="translate(3.663 8.471)" style="fill:#fff"/>
            <path data-name="Tracé 153" d="M59.795 57.148a72.536 72.536 0 0 0-4.235 11.3h2.5c.179-.543.334-1.07.5-1.627.129-.429.258-.869.4-1.322l.023-.073h3.887l.024.073c.33 1.047.617 1.985.9 2.949h2.5a72.3 72.3 0 0 0-4.235-11.3zm2.488 6.38H59.6l.041-.136c.3-.989.757-2.481 1.19-3.566l.093-.235.1.233c.3.7.568 1.557.827 2.385.132.42.255.816.38 1.18z" transform="translate(8.236 8.471)" style="fill:#fff"/>
        </g>
    </g>
</svg>
